<?xml version="1.0" encoding="utf-8"?>
<!-- Generator: Adobe Illustrator 16.0.0, SVG Export Plug-In . SVG Version: 6.00 Build 0)  -->
<!DOCTYPE svg PUBLIC "-//W3C//DTD SVG 1.1//EN" "http://www.w3.org/Graphics/SVG/1.1/DTD/svg11.dtd">
<svg version="1.1" id="图层_1" xmlns="http://www.w3.org/2000/svg" xmlns:xlink="http://www.w3.org/1999/xlink" x="0px" y="0px"
	 width="800px" height="800px" viewBox="0 0 800 800" enable-background="new 0 0 800 800" xml:space="preserve">
<g>
	<path fill="none" d="M360.803,206.449c-23.932-22.559-52.575-33.559-85.289-34.219c-7.913-0.16-15.783,0.65-23.583,2.135
		c-30.169,5.744-54.91,20.572-74.314,44.327c-16.488,20.185-25.331,43.406-27.188,69.32c-0.99,13.819,0.308,27.446,4.012,40.823
		c6.412,23.151,18.444,42.9,36.239,59.005c23.885,21.616,52.128,32.173,84.25,32.541c10.392,0.123,20.584-1.21,30.613-3.785
		c22.893-5.88,42.722-17.062,59.091-34.229c13.201-13.846,23.207-29.62,29.07-47.909c3.757-11.719,5.594-23.736,5.787-36.044
		c0.163-10.438-0.768-20.732-3.254-30.878C390.399,243.707,378.658,223.28,360.803,206.449z"/>
	<path fill="none" d="M598.706,223.303c26.837,0.054,44.293-21.773,44.162-44.329c-0.137-23.559-19.055-44-44.029-43.528
		c-26.229-0.356-43.717,21.569-44.104,43.375C554.365,199.568,570.308,223.245,598.706,223.303z"/>
	<path fill="none" d="M650.11,349c-35.684,0.247-67.21,28.583-67.646,67.916c0.404,37.257,29.78,67.43,68.027,67.376
		c38.341-0.054,68.075-30.519,68.037-67.922C718.49,378.292,687.496,348.742,650.11,349z"/>
	<path d="M468.424,426.902c-1.329-1.319-1.346-1.312-0.308-2.875c8.06-12.135,14.977-24.882,20.616-38.32
		c5.979-14.248,10.359-28.978,13.423-44.112c0.641-3.167,0.362-2.839,3.521-2.843c7.76-0.01,15.52-0.003,23.278-0.003
		c2.8,0,5.603,0.067,8.399-0.021c4.199-0.13,7.726-2.927,8.787-6.897c0.374-1.399,0.306-2.854,0.306-4.292
		c0.002-21.519,0.003-43.038-0.003-64.556c-0.001-1.039-0.043-2.078-0.104-3.115c-0.087-1.471-0.585-2.812-1.438-4.006
		c-1.763-2.468-4.066-4.083-7.183-4.16c-3.916-0.096-7.836-0.1-11.755-0.107c-7.359-0.015-14.719,0-22.078-0.007
		c-2.141-0.002-2.138-0.02-2.612-2.157c-0.433-1.946-0.843-3.898-1.312-5.836c-6.559-27.055-17.802-52.018-33.504-74.989
		c-1.293-1.891-1.29-1.907,0.381-3.58c5.597-5.603,11.193-11.206,16.803-16.797c2.266-2.258,4.549-4.498,6.847-6.722
		c4.83-4.673,3.413-11.299-0.123-14.541c-1.708-1.566-3.344-3.213-4.987-4.849c-13.487-13.436-26.967-26.878-40.454-40.313
		c-0.963-0.959-1.931-1.918-2.957-2.807c-3.503-3.03-8.128-3.262-11.952-0.646c-1.262,0.863-2.338,1.933-3.414,3.005
		c-7.652,7.62-15.302,15.241-22.959,22.855c-1.573,1.564-1.586,1.551-3.435,0.416c-0.136-0.083-0.272-0.167-0.407-0.253
		c-22.112-14.018-45.921-23.975-71.438-29.835c-2.876-0.661-5.766-1.266-8.655-1.869c-1.244-0.26-2.035-0.817-1.946-2.246
		c0.055-0.875-0.051-1.757-0.051-2.636c-0.005-7.84-0.003-15.679-0.003-23.519c0-3.28,0.007-6.56-0.001-9.84
		c-0.017-6.387-4.292-10.458-9.84-10.325c-0.799,0.019-1.599-0.033-2.398-0.033c-21.039-0.002-42.078-0.002-63.116,0.002
		c-0.959,0-1.918,0.033-2.876,0.082c-6,0.307-9.509,3.947-9.624,9.98c-0.012,0.64-0.002,1.28-0.002,1.92
		c0,11.599,0.005,23.199-0.004,34.798c-0.002,2.306-0.121,2.418-2.027,2.814c-20.835,4.331-40.619,11.576-59.451,21.458
		c-6.652,3.491-13.097,7.333-19.382,11.446c-1.663,1.088-1.687,1.072-3.035-0.232c-1.781-1.724-3.563-3.447-5.317-5.198
		c-6.851-6.837-13.689-13.688-20.539-20.527c-0.678-0.677-1.362-1.361-2.118-1.944c-3.754-2.893-8.481-2.868-12.145,0.122
		c-1.421,1.16-2.734,2.46-4.036,3.756c-12.869,12.811-25.724,25.635-38.587,38.45c-1.076,1.072-2.207,2.089-3.276,3.167
		c-1.295,1.305-2.636,2.577-3.809,3.987c-2.967,3.567-3.061,8.233-0.289,11.941c0.667,0.892,1.448,1.708,2.239,2.496
		c4.192,4.178,8.411,8.33,12.607,12.503c4.368,4.343,8.696,8.726,13.096,13.036c1.615,1.582,1.357,1.361,0.34,2.884
		c-5.282,7.912-10.077,16.113-14.316,24.627c-8.501,17.075-14.869,34.908-18.84,53.581c-0.498,2.342-0.56,2.374-2.999,2.373
		c-11.996-0.004-23.993,0.052-35.989-0.028c-4.905-0.033-8.494,1.818-10.521,6.386c0.021,0.237,0.059,0.475,0.06,0.711
		c0.008,24.727,0.013,49.453,0.018,74.18c2.179,4.182,5.718,6.208,10.339,6.069c11.673-0.349,23.347-0.059,35.02-0.147
		c2.4-0.018,2.673,0.284,3.152,2.657c1.831,9.081,4.089,18.048,6.961,26.86c6.068,18.617,14.458,36.122,25.044,52.587
		c1.42,2.209,1.329,1.825-0.375,3.515c-8.182,8.108-16.347,16.232-24.499,24.37c-4.318,4.311-4.292,10.457,0.032,14.729
		c1.194,1.181,2.445,2.303,3.634,3.487c13.826,13.776,27.645,27.559,41.466,41.339c0.792,0.791,1.564,1.605,2.381,2.37
		c1.236,1.157,2.607,2.131,4.248,2.621c4.087,1.221,7.523,0.076,10.488-2.885c7.699-7.686,15.42-15.348,23.133-23.019
		c1.92-1.91,1.941-1.936,4.183-0.412c9.194,6.252,18.803,11.783,28.815,16.612c11.956,5.766,24.311,10.485,37.089,14.093
		c5.071,1.432,10.18,2.704,15.329,3.827c1.669,0.363,1.798,0.546,1.877,2.232c0.022,0.479,0.004,0.96,0.004,1.439
		c0,10.16,0,20.319,0,30.479c0,1.278,0.023,2.547,0.387,3.799c1.128,3.883,4.826,6.879,9.338,6.837
		c10.958-0.103,21.918-0.033,32.877-0.033c11.839,0,23.68-0.092,35.518,0.048c4.382,0.052,8.899-3.426,9.508-7.838
		c0.143-1.032,0.295-2.059,0.294-3.093c-0.01-9.599-0.063-19.197-0.055-28.795c0.004-4.646-0.077-3.822,3.728-4.547
		c9.66-1.839,19.126-4.383,28.435-7.518c18.781-6.324,36.459-14.929,53.038-25.789c2.012-1.317,2.027-1.298,3.776,0.442
		c6.861,6.825,13.717,13.658,20.59,20.472c0.849,0.842,1.729,1.675,2.7,2.365c3.469,2.468,7.72,2.45,11.182-0.024
		c0.841-0.601,1.608-1.318,2.344-2.049c9.929-9.867,19.845-19.747,29.767-29.62c0.68-0.677,1.396-1.315,2.073-1.995
		c5.307-5.327,10.61-10.654,15.906-15.991c1.474-1.486,2.097-3.34,2.291-5.391c0.348-3.683-1.354-6.444-3.841-8.907
		C482.601,441.004,475.519,433.946,468.424,426.902z M399.491,298.414c-0.192,12.309-2.029,24.326-5.787,36.044
		c-5.864,18.289-15.869,34.063-29.07,47.909c-16.369,17.167-36.198,28.35-59.091,34.229c-10.028,2.575-20.221,3.908-30.613,3.785
		c-32.122-0.368-60.365-10.925-84.25-32.541c-17.795-16.105-29.827-35.854-36.239-59.005c-3.705-13.376-5.002-27.004-4.012-40.823
		c1.857-25.915,10.701-49.136,27.188-69.32c19.404-23.755,44.145-38.583,74.314-44.327c7.799-1.485,15.67-2.295,23.583-2.135
		c32.714,0.66,61.357,11.66,85.289,34.219c17.855,16.831,29.596,37.258,35.434,61.086
		C398.723,277.682,399.654,287.976,399.491,298.414z"/>
	<path d="M765.605,664.739c-0.449-3.619-2.246-5.227-5.427-5.056c-0.558,0.03-1.119,0.003-1.68,0.004
		c-17.195,0.026-34.392,0.065-51.588,0.076c-21.917,0.013-43.833,0.004-65.749,0c-1.359,0-2.718-0.051-4.076-0.04
		c-0.988,0.008-1.491-0.451-1.524-1.425c-0.019-0.56-0.011-1.119-0.011-1.68c0-7.999,0-15.997,0-23.996c0-3.28,0-3.262,3.262-3.262
		c40.394,0.005,80.787,0.005,121.181,0c3.448-0.001,5.625-2.172,5.631-5.652c0.019-10.558,0.021-21.116-0.001-31.675
		c-0.008-3.555-1.714-5.478-5.205-5.98c-0.707-0.102-1.432-0.115-2.148-0.115c-51.191-0.005-102.383,0.005-153.575-0.019
		c-5.438-0.002-7.23,2.018-7.217,7.098c0.093,34.634,0.049,69.269,0.049,103.902c0,0.48-0.017,0.961,0.003,1.44
		c0.078,1.843,1.08,3.108,2.847,3.673c1.092,0.35,2.209,0.291,3.326,0.291c40.153,0,80.308,0,120.461,0
		c0.64,0,1.28,0.025,1.919-0.003c0.901-0.039,1.336,0.354,1.305,1.267c-0.017,0.479,0.004,0.959,0.004,1.439
		c0,8.318-0.004,16.637,0.002,24.956c0.002,3.148,0.048,2.738-2.691,2.739c-18.236,0.007-36.474,0.004-54.711,0.004
		c-22.316,0-44.633-0.005-66.949,0.004c-4.015,0.002-5.508,1.511-5.513,5.496c-0.008,5.6-0.002,11.198-0.002,16.798
		c0,5.359-0.028,10.719,0.013,16.077c0.019,2.525,1.469,3.994,3.972,4.173c0.637,0.046,1.279,0.01,1.919,0.01
		c25.836,0,51.672,0,77.508,0c3.359,0,6.719-0.004,10.078,0.001c20.876,0.027,41.751,0.059,62.626,0.086
		c2.399,0.003,4.8,0.036,7.198-0.021c1.966-0.047,3.537-0.805,4.459-2.688c0.455-0.931,0.323-1.877,0.323-2.82
		c0.011-34.475,0.009-68.949,0.008-103.424C765.63,665.857,765.674,665.291,765.605,664.739z"/>
	<path d="M211.768,590.738c-0.223-2.512-1.845-4.278-4.346-4.661c-0.862-0.132-1.749-0.139-2.625-0.139
		c-51.346-0.006-102.693-0.006-154.039,0.001c-0.875,0.001-1.769-0.001-2.62,0.168c-2.379,0.472-3.74,2.093-3.869,4.495
		c-0.034,0.638-0.006,1.279-0.006,1.919c0,29.512,0,59.024,0,88.536c0,29.593-0.001,59.185,0.003,88.776
		c0,0.879-0.032,1.769,0.093,2.633c0.277,1.918,1.07,2.633,2.983,2.803c0.556,0.05,1.119,0.015,1.679,0.015
		c8.558,0.001,17.116,0,25.673,0c1.12,0,2.241,0.039,3.359-0.009c2.21-0.094,3.721-1.52,3.949-3.715
		c0.066-0.633,0.019-1.278,0.019-1.918c0-21.354,0-42.709,0.001-64.063c0-3.252,0.007-3.245,3.32-3.256
		c29.986-0.1,59.973,0.172,89.959-0.08c2.022-0.017,2.922-0.788,3.681-2.298c0.517-1.026,0.58-2.125,0.578-3.259
		c-0.018-10.396-0.009-20.794-0.015-31.191c0-0.718,0.023-1.452-0.112-2.149c-0.44-2.261-1.812-3.442-4.149-3.567
		c-1.275-0.068-2.557-0.011-3.835-0.012c-27.992-0.026-55.983-0.053-83.975-0.077c-1.198-0.002-2.397,0.044-3.594,0.021
		c-1.128-0.022-1.793-0.586-1.825-1.767c-0.018-0.64-0.031-1.279-0.031-1.918c-0.002-7.919-0.011-15.836,0.003-23.754
		c0.005-3.287-0.36-2.901,2.971-2.902c40.229-0.007,80.458-0.004,120.688-0.007c0.878,0,1.757-0.047,2.636-0.052
		c0.77-0.005,1.331-0.328,1.85-0.908c1.111-1.242,1.739-2.602,1.729-4.318c-0.063-10.636-0.078-21.271-0.11-31.907
		C211.789,591.697,211.811,591.215,211.768,590.738z"/>
	<path d="M455.934,737.929c-0.018-3.742-1.341-5.067-5.014-5.197c-0.559-0.02-1.119-0.005-1.679-0.005
		c-7.679,0-15.356-0.004-23.034,0.002c-2.475,0.001-2.348,0.137-2.336-2.35c0.001-0.319,0-0.64,0-0.959c0-32.152,0-64.304,0-96.455
		c0-0.561-0.02-1.121,0.003-1.68c0.071-1.768,0.167-1.883,1.951-1.915c4.872-0.088,9.747-0.271,14.616-0.182
		c3.272,0.06,6.546,0.18,9.82,0.175c4.211-0.008,5.677-1.442,5.679-5.574c0.006-10.397,0.003-20.795,0.002-31.192
		c0-5.323-1.331-6.662-6.647-6.662c-29.593-0.002-59.185,0.001-88.778-0.011c-1.125,0-2.232,0.084-3.331,0.299
		c-2.219,0.437-3.512,1.777-3.8,4.019c-0.102,0.789-0.08,1.597-0.08,2.396c-0.004,10.157,0.109,20.316-0.053,30.471
		c-0.074,4.633,1.686,6.343,6.309,6.258c0.399-0.007,0.8-0.001,1.199-0.001c7.278,0,14.557,0,21.834,0.001
		c0.56,0,1.12,0.01,1.68,0.002c0.794-0.01,1.137,0.35,1.123,1.166c-0.021,1.197,0.062,2.396,0.062,3.595
		c0.005,15.596,0.003,31.191,0.003,46.788c0,15.836,0,31.672-0.001,47.508c0,0.96-0.029,1.92-0.013,2.879
		c0.019,1.139-0.519,1.463-1.635,1.46c-8.477-0.019-16.955,0.125-25.428-0.03c-1.983-0.036-3.101,0.647-4.188,2.063
		c-0.801,1.043-0.905,2.155-0.903,3.377c0.015,10.637,0.008,21.274,0.01,31.911c0,0.56-0.013,1.123,0.047,1.678
		c0.214,1.973,1.171,3.041,3.114,3.398c0.7,0.129,1.431,0.12,2.147,0.12c30.792,0.005,61.584,0.005,92.376-0.001
		c0.716,0,1.44-0.019,2.146-0.13c1.4-0.222,2.277-1.005,2.576-2.455c0.164-0.792,0.236-1.573,0.234-2.374
		c-0.006-3.358-0.003-6.718-0.003-10.077C455.942,752.805,455.966,745.367,455.934,737.929z"/>
	<path d="M297.674,732.742c-9.674-0.015-19.349-0.014-29.023-0.012c-0.639,0-1.283,0.015-1.915,0.098
		c-0.968,0.126-3.389,2.709-3.278,3.646c0.248,2.086-0.122,4.147-0.093,6.224c0.131,9.352-0.106,18.706,0.12,28.061
		c0.037,1.516,0.372,2.571,1.464,3.518c1.041,0.901,2.231,1.115,3.558,1.107c9.435-0.05,18.872-0.138,28.306-0.057
		c2.87,0.024,5.208-1.688,5.094-5.201c-0.168-5.193-0.043-10.396-0.043-15.594h0.088c0-3.598,0-7.194,0-10.792
		c0-2,0.051-4.001-0.014-5.998C301.858,735.303,299.657,732.746,297.674,732.742z"/>
	<path d="M540.974,732.814c-2.157-0.03-4.315-0.05-6.474-0.055c-7.674-0.015-15.349-0.021-23.023-0.035
		c-0.57-0.001-1.159-0.012-1.537,0.484c-1.052,1.383-2.212,2.643-2.201,4.624c0.06,10.952,0.008,21.905,0.04,32.858
		c0.01,3.363,1.292,4.581,4.698,4.587c9.515,0.018,19.028,0.021,28.543-0.002c3.4-0.008,4.762-1.423,4.769-4.846
		c0.011-5.356,0.003-10.714,0.003-16.07c0-4.157-0.007-8.314,0.003-12.472c0.004-1.519,0.013-3.038,0.084-4.555
		c0.085-1.822-1.236-2.876-2.2-4.105C542.962,732.316,541.896,732.827,540.974,732.814z"/>
	<path d="M793.527,429.799c-4.698-1.274-9.407-2.509-14.112-3.757c-2.401-0.637-2.391-0.634-2.319-3.021
		c0.17-5.674,0.216-11.336-0.289-17.008c-0.823-9.266-2.566-18.333-5.436-27.175c-1.491-4.597-1.679-3.778,2.448-6.14
		c3.741-2.141,7.453-4.336,11.23-6.41c3.797-2.085,4.917-5.123,2.356-9.168c-0.214-0.337-0.398-0.693-0.598-1.039
		c-1.837-3.181-3.671-6.363-5.51-9.543c-3.8-6.566-7.609-13.125-11.396-19.698c-1.007-1.748-2.312-2.997-4.411-3.328
		c-1.632-0.257-2.965,0.365-4.288,1.124c-4.642,2.661-9.271,5.341-13.919,7.991c-1.656,0.944-1.688,0.928-3.015-0.442
		c-1.445-1.492-2.805-3.073-4.301-4.511c-9.805-9.424-20.685-17.32-33.005-23.168c-1.709-0.812-1.715-0.924-1.307-2.762
		c0.087-0.388,0.212-0.768,0.314-1.153c1.379-5.164,2.784-10.32,4.128-15.494c0.929-3.579-0.356-5.863-3.855-7.032
		c-0.454-0.152-0.914-0.283-1.376-0.407c-10.011-2.687-20.018-5.388-30.038-8.041c-1.77-0.468-3.511-1.105-5.365-1.21
		c-2.688-0.152-4.424,0.918-5.454,3.393c-0.243,0.586-0.405,1.209-0.574,1.824c-1.456,5.308-2.909,10.616-4.355,15.926
		c-0.669,2.459-0.659,2.437-3.101,2.376c-3.347-0.083-6.683-0.161-10.042-0.006c-11.729,0.541-23.141,2.634-34.269,6.343
		c-2.164,0.722-2.181,0.715-3.341-1.28c-2.728-4.694-5.438-9.397-8.166-14.091c-0.601-1.034-1.151-2.099-1.989-2.982
		c-1.594-1.682-3.451-2.237-5.64-1.359c-0.811,0.325-1.608,0.702-2.366,1.136c-5.956,3.417-11.896,6.862-17.851,10.284
		c-4.153,2.387-8.354,4.695-12.472,7.144c-3.322,1.976-4.092,5.006-2.321,8.417c0.147,0.283,0.317,0.555,0.479,0.831
		c2.896,4.966,5.796,9.93,8.687,14.899c1.261,2.167,1.235,2.218-0.687,3.988c-5.9,5.431-11.237,11.362-15.973,17.84
		c-3.967,5.427-7.489,11.125-10.615,17.074c-0.915,1.742-1.152,1.851-3.014,1.413c-1.396-0.328-2.773-0.742-4.161-1.107
		c-4.785-1.262-9.561-2.562-14.36-3.765c-3.891-0.975-6.091,0.321-7.302,4.144c-0.096,0.303-0.172,0.613-0.256,0.92
		c-1.408,5.155-2.832,10.306-4.22,15.467c-1.677,6.241-3.371,12.477-4.964,18.739c-0.854,3.363,0.42,5.561,3.665,6.729
		c0.675,0.243,1.36,0.465,2.053,0.648c5.477,1.455,10.955,2.9,16.435,4.346c2.595,0.684,2.574,0.68,2.505,3.289
		c-0.134,5.033-0.124,10.061,0.226,15.094c0.661,9.526,2.349,18.842,5.283,27.93c0.776,2.402,0.77,2.396-1.516,3.71
		c-5.259,3.024-10.528,6.029-15.765,9.092c-3.684,2.155-4.425,4.773-2.32,8.433c5.892,10.243,11.818,20.467,17.776,30.671
		c2.257,3.865,4.896,4.486,8.828,2.234c4.92-2.816,9.834-5.644,14.757-8.455c2.962-1.691,2.165-1.896,4.391,0.625
		c4.94,5.594,10.422,10.594,16.282,15.196c5.861,4.604,12.117,8.587,18.719,12.034c1.509,0.788,2.082,0.894,1.426,3.126
		c-1.282,4.361-2.399,8.772-3.585,13.162c-0.374,1.386-0.8,2.76-1.111,4.16c-0.754,3.393,0.487,5.566,3.766,6.702
		c0.451,0.156,0.912,0.287,1.374,0.411c6.473,1.738,12.942,3.489,19.422,5.204c5.09,1.347,10.167,2.761,15.299,3.93
		c3.455,0.787,5.43-0.51,6.633-3.853c0.161-0.448,0.27-0.916,0.396-1.377c1.409-5.155,2.8-10.315,4.234-15.464
		c0.523-1.878,0.569-1.854,2.443-1.812c4.706,0.108,9.401,0.278,14.122,0.107c10.855-0.393,21.41-2.287,31.757-5.501
		c2.313-0.719,2.319-0.705,3.56,1.436c2.48,4.282,4.957,8.567,7.44,12.848c0.32,0.553,0.634,1.115,1.016,1.625
		c1.854,2.476,4.175,3.076,6.967,1.812c0.508-0.23,0.984-0.53,1.47-0.808c4.366-2.497,8.734-4.991,13.095-7.498
		c5.745-3.303,11.505-6.579,17.216-9.938c3.78-2.223,4.416-4.75,2.34-8.639c-0.301-0.563-0.635-1.109-0.955-1.663
		c-2.116-3.664-4.243-7.323-6.349-10.995c-1.506-2.628-1.623-2.235,0.608-4.31c0.117-0.109,0.236-0.216,0.356-0.322
		c11.617-10.295,20.915-22.385,28.004-36.186c0.995-1.937,1.009-1.942,3.125-1.396c4.248,1.099,8.49,2.223,12.741,3.312
		c1.387,0.355,2.749,0.871,4.218,0.783c2.287,0.146,3.812-0.949,4.729-2.962c0.329-0.723,0.585-1.486,0.795-2.253
		c3.046-11.159,6.1-22.316,9.104-33.486C799.266,433.414,797.816,430.963,793.527,429.799z M650.491,484.292
		c-38.247,0.054-67.623-30.119-68.027-67.376c0.437-39.333,31.963-67.669,67.646-67.916c37.386-0.258,68.38,29.292,68.418,67.37
		C718.566,453.773,688.832,484.238,650.491,484.292z"/>
	<path d="M504.835,160.902c0.743,0.451,1.571,0.774,2.389,1.084c3.131,1.189,6.287,2.314,9.406,3.533
		c2.404,0.94,2.202,0.796,1.858,3.084c-1.345,8.938-0.938,17.833,0.686,26.695c0.444,2.425,0.478,2.429-1.707,3.438
		c-3.186,1.472-6.396,2.893-9.562,4.403c-3.135,1.495-3.634,2.926-2.243,6.152c0.536,1.246,1.137,2.463,1.704,3.695
		c2.534,5.507,5.026,11.035,7.617,16.515c1.421,3.007,2.65,3.411,5.745,2.183c0.667-0.264,1.326-0.55,1.979-0.848
		c2.612-1.195,5.217-2.409,7.833-3.597c1.682-0.764,1.835-0.715,3.012,0.727c0.253,0.31,0.493,0.63,0.733,0.95
		c5.234,6.963,11.47,12.879,18.645,17.813c2.555,1.757,2.553,1.764,1.431,4.751c-0.252,0.672-0.546,1.329-0.791,2.003
		c-0.898,2.474-1.854,4.931-2.653,7.437c-0.616,1.927-0.007,3.25,1.732,4.218c0.554,0.308,1.158,0.533,1.755,0.755
		c6.649,2.481,13.299,4.963,19.955,7.426c3.647,1.35,5.114,0.685,6.461-2.883c1.1-2.91,2.164-5.834,3.285-8.735
		c0.7-1.81,0.917-1.867,2.869-1.581c2.369,0.348,4.738,0.69,7.141,0.777c7.045,0.255,14.059,0.159,20.982-1.423
		c2.196-0.501,2.378-0.323,3.383,1.882c1.223,2.684,2.404,5.389,3.69,8.042c1.379,2.847,2.954,3.499,5.812,2.225
		c6.92-3.085,13.811-6.237,20.677-9.44c2.873-1.34,3.409-2.901,2.149-5.832c-1.166-2.709-2.439-5.373-3.669-8.054
		c-0.883-1.925-0.89-2.029,0.876-3.343c3.084-2.295,6.031-4.746,8.771-7.442c4.118-4.053,7.729-8.521,10.898-13.35
		c1.321-2.014,1.317-1.993,3.604-1.114c2.455,0.944,4.928,1.84,7.388,2.774c0.751,0.285,1.506,0.53,2.314,0.571
		c1.938,0.118,2.965-0.548,3.852-2.892c2.682-7.085,5.324-14.186,7.906-21.309c1.116-3.079,0.47-4.432-2.523-5.619
		c-2.593-1.029-5.218-1.978-7.843-2.924c-2.324-0.837-2.472-0.96-2.044-3.479c0.43-2.529,0.576-5.083,0.697-7.628
		c0.333-6.978-0.383-13.878-1.864-20.702c-0.453-2.087-0.404-2.167,1.543-3.062c2.68-1.232,5.388-2.409,8.038-3.703
		c3.071-1.5,3.488-2.759,2.154-5.954c-0.123-0.294-0.239-0.591-0.371-0.882c-2.209-4.867-4.411-9.736-6.634-14.596
		c-0.863-1.886-1.697-3.792-2.682-5.614c-1.113-2.061-2.37-2.486-4.59-1.758c-0.681,0.223-1.348,0.498-2,0.794
		c-2.468,1.123-4.918,2.282-7.392,3.393c-1.722,0.774-1.951,0.751-3.033-0.67c-5.929-7.785-13.074-14.215-21.38-19.378
		c-1.521-0.946-1.551-1.203-0.895-2.949c1.093-2.909,2.178-5.822,3.306-8.717c0.294-0.756,0.494-1.516,0.562-2.315
		c0.13-1.518-0.47-2.642-1.86-3.303c-0.504-0.239-1.018-0.461-1.54-0.655c-6.951-2.589-13.898-5.185-20.858-7.749
		c-2.909-1.072-4.44-0.346-5.593,2.633c-1.237,3.2-2.41,6.424-3.632,9.629c-0.678,1.775-0.697,1.768-2.619,1.643
		c-0.398-0.026-0.799-0.051-1.196-0.091c-8.969-0.917-17.867-0.584-26.681,1.435c-2.01,0.46-2.229,0.311-3.082-1.583
		c-1.408-3.127-2.773-6.274-4.229-9.379c-1.416-3.021-3.102-3.61-6.212-2.295c-0.294,0.124-0.575,0.278-0.865,0.41
		c-6.241,2.847-12.483,5.691-18.724,8.54c-0.507,0.231-1.031,0.446-1.494,0.75c-1.818,1.191-2.385,2.673-1.781,4.743
		c0.2,0.683,0.557,1.321,0.854,1.974c1.355,2.976,2.726,5.944,4.068,8.925c0.766,1.701,0.758,1.724-0.704,2.857
		c-6.683,5.182-12.47,11.21-17.32,18.146c-0.851,1.217-1.282,3.04-2.781,3.43c-1.456,0.379-2.847-0.796-4.262-1.301
		c-2.854-1.019-5.675-2.134-8.556-3.066c-2.425-0.784-3.774-0.104-4.835,2.171c-0.235,0.505-0.409,1.04-0.604,1.563
		c-2.259,6.052-4.512,12.106-6.776,18.156c-0.42,1.121-0.856,2.229-1.122,3.405C503.048,158.948,503.538,160.116,504.835,160.902z
		 M598.839,135.446c24.975-0.472,43.893,19.969,44.029,43.528c0.131,22.556-17.325,44.383-44.162,44.329
		c-28.398-0.058-44.341-23.734-43.972-44.481C555.122,157.015,572.609,135.09,598.839,135.446z"/>
</g>
</svg>
